<?xml version="1.0" encoding="utf-8"?>
<!-- Generator: Adobe Illustrator 22.0.1, SVG Export Plug-In . SVG Version: 6.00 Build 0)  -->
<svg version="1.1" id="Layer_1" xmlns="http://www.w3.org/2000/svg" xmlns:xlink="http://www.w3.org/1999/xlink" x="0px" y="0px"
	 viewBox="0 0 50 50" style="enable-background:new 0 0 50 50;" xml:space="preserve">
<style type="text/css">
	.st0{fill:none;stroke:#D3D3D3;stroke-width:2;stroke-miterlimit:10;}
	.st1{fill:none;stroke:#D3D3D3;stroke-width:1.5;stroke-miterlimit:10;}
</style>
<path class="st0" d="M44.3,26.8v-3.7l-5-0.5c-0.4-2.3-1.3-4.4-2.6-6.2l3.2-3.9L37.4,10l-3.9,3.2c-1.8-1.3-3.9-2.2-6.2-2.6l-0.5-5
	h-3.7l-0.5,5c-2.3,0.4-4.4,1.3-6.2,2.6L12.6,10L10,12.6l3.2,3.9c-1.3,1.8-2.2,3.9-2.6,6.2l-5,0.5v3.7l5,0.5c0.4,2.3,1.3,4.4,2.6,6.2
	L10,37.4l2.6,2.6l3.9-3.2c1.8,1.3,3.9,2.2,6.2,2.6l0.5,5h3.7l0.5-5c2.3-0.4,4.4-1.3,6.2-2.6l3.9,3.2l2.6-2.6l-3.2-3.9
	c1.3-1.8,2.2-3.9,2.6-6.2L44.3,26.8z"/>
<circle class="st1" cx="25" cy="25" r="6.9"/>
</svg>
